<svg t="1645422004192" class="icon" viewBox="0 0 1084 1024" version="1.1" xmlns="http://www.w3.org/2000/svg" p-id="4799" width="81" height="81"><path d="M764.60188375 243.47623678a47.38654637 47.38654637 0 0 1 47.38654636 47.38654635v426.35255425a47.38654637 47.38654637 0 0 1-47.38654636 47.38654639H290.86278313a47.38654637 47.38654637 0 0 1-47.38654636-47.38654639V290.86278313A47.38654637 47.38654637 0 0 1 290.86278313 243.47623678h473.73910062z m0 47.38654635H290.86278313l-0.03159088 353.12454435 69.91095161-67.85753464a63.18206181 63.18206181 0 0 1 101.091299 18.22802502l29.91670604 63.08728866 107.78859792-143.26532554a63.18206181 63.18206181 0 0 1 106.90404863 9.47730969l58.12749688 115.11771646V290.86278313zM409.29755842 338.24932949a71.07981982 71.07981982 0 1 1 0 142.09645733 71.07981982 71.07981982 0 0 1 0-142.1280482z m0.03159088 100.99652637a7.89775799 7.89775799 0 1 0 0 15.79551545 7.89775799 7.89775799 0 0 0 0-15.79551544z m0-82.76850134a7.89775799 7.89775799 0 0 0-7.89775748 7.89775799v58.69613528a7.89775799 7.89775799 0 0 0 15.79551547 0V364.40670338a7.89775799 7.89775799 0 0 0-7.89775799-7.89775798z" fill="#8a8a8a" p-id="4800"></path></svg>