<svg xmlns="http://www.w3.org/2000/svg" version="1.1" xmlns:xlink="http://www.w3.org/1999/xlink" width="420"
				height="115" viewBox="0 0 420 115" data-parent="shape_Jpb3xzUR1b">
				<!-- <rect fill="rgba(22,321,226)" width="420" height="115" x="0" y="0"></rect> -->
				<g data-width="381.128" transform="translate(20, -250)">
					<path
						d="M60.63-5.46L6.42 0.35L1.76-4.14L7.74-59.93L12.41-63.62L57.73-56.94L56.58-48.66L15.49-54.74L10.56-8.45L59.75-13.73L60.63-5.46Z"
						transform="translate(0 339.592) skewX(0)" fill="rgb(73, 8, 177)" stroke="rgb(73, 8, 177)"
						stroke-width="10.147" stroke-miterlimit="3" data-glyph-w="62.391999999999996" data-glyph-h="88"
						data-glyph-ascender="75.592" data-glyph-descender="-12.408"></path>
					<path
						d="M12.58-53.33L10.03-0.88L1.76-1.32L4.49-57.64L8.45-61.60L51.92-62.92L56.14-59.31L59.84-29.57L55.26-24.99L48.31-25.70L60.37-4.40L53.24-0.35L38.37-26.75L19.71-28.69L20.59-36.96L50.95-33.79L48.40-54.56L12.58-53.33Z"
						transform="translate(62.391999999999996 339.592) skewX(0)" fill="rgb(73, 8, 177)" stroke="rgb(73, 8, 177)"
						stroke-width="10.147" stroke-miterlimit="3" data-glyph-w="62.12799999999999" data-glyph-h="88"
						data-glyph-ascender="75.592" data-glyph-descender="-12.408"></path>
					<path d="M13.11-61.69L10.03-1.23L1.76-1.67L4.75-62.13L13.11-61.69Z"
						transform="translate(124.51999999999998 339.592) skewX(0)" fill="rgb(73, 8, 177)" stroke="rgb(73, 8, 177)"
						stroke-width="10.147" stroke-miterlimit="3" data-glyph-w="14.872" data-glyph-h="88"
						data-glyph-ascender="75.592" data-glyph-descender="-12.408"></path>
					<path
						d="M60.63-5.46L6.42 0.35L1.76-4.14L7.74-59.93L12.41-63.62L57.73-56.94L56.58-48.66L15.49-54.74L10.56-8.45L59.75-13.73L60.63-5.46Z"
						transform="translate(139.392 339.592) skewX(0)" fill="rgb(73, 8, 177)" stroke="rgb(73, 8, 177)"
						stroke-width="10.147" stroke-miterlimit="3" data-glyph-w="62.391999999999996" data-glyph-h="88"
						data-glyph-ascender="75.592" data-glyph-descender="-12.408"></path>
					<path
						d="M49.37-5.72L43.47 0L19.01-25.70L19.45-31.86L45.32-52.27L50.51-45.76L28.16-28.07L49.37-5.72ZM18.48-63.54L10.03 1.14L1.76 0.09L10.21-64.50L18.48-63.54Z"
						transform="translate(201.784 339.592) skewX(0)" fill="rgb(73, 8, 177)" stroke="rgb(73, 8, 177)"
						stroke-width="10.147" stroke-miterlimit="3" data-glyph-w="52.272" data-glyph-h="88"
						data-glyph-ascender="75.592" data-glyph-descender="-12.408"></path>
					<path
						d="M56.14-4.31L6.25-0.26L1.76-4.75L5.98-59.05L10.21-62.92L54.56-61.51L54.21-53.24L13.90-54.47L12.58-37.22L50.69-37.84L50.86-29.48L11.88-28.86L10.38-8.89L55.44-12.58L56.14-4.31Z"
						transform="translate(254.05599999999998 339.592) skewX(0)" fill="rgb(73, 8, 177)" stroke="rgb(73, 8, 177)"
						stroke-width="10.147" stroke-miterlimit="3" data-glyph-w="57.903999999999996" data-glyph-h="88"
						data-glyph-ascender="75.592" data-glyph-descender="-12.408"></path>
					<path
						d="M67.41-61.42L67.23-53.24L38.28-54.21L36.17 0.44L27.81 0.18L30.10-54.47L1.76-55.44L2.11-63.80L67.41-61.42Z"
						transform="translate(311.96 339.592) skewX(0)" fill="rgb(73, 8, 177)" stroke="rgb(73, 8, 177)"
						stroke-width="10.147" stroke-miterlimit="3" data-glyph-w="69.16799999999999" data-glyph-h="88"
						data-glyph-ascender="75.592" data-glyph-descender="-12.408"></path>
				</g>
				<g data-width="381.128" transform="translate(20, -250)">
					<path
						d="M60.63-5.46L6.42 0.35L1.76-4.14L7.74-59.93L12.41-63.62L57.73-56.94L56.58-48.66L15.49-54.74L10.56-8.45L59.75-13.73L60.63-5.46Z"
						transform="translate(0 339.592) skewX(0)" fill="#FF8C00" stroke="#FF8C00" stroke-width="0.147"
						data-glyph-w="62.391999999999996" data-glyph-h="88" data-glyph-ascender="75.592"
						data-glyph-descender="-12.408"></path>
					<path
						d="M12.58-53.33L10.03-0.88L1.76-1.32L4.49-57.64L8.45-61.60L51.92-62.92L56.14-59.31L59.84-29.57L55.26-24.99L48.31-25.70L60.37-4.40L53.24-0.35L38.37-26.75L19.71-28.69L20.59-36.96L50.95-33.79L48.40-54.56L12.58-53.33Z"
						transform="translate(62.391999999999996 339.592) skewX(0)" fill="#FF8C00" stroke="#FF8C00"
						stroke-width="0.147" data-glyph-w="62.12799999999999" data-glyph-h="88" data-glyph-ascender="75.592"
						data-glyph-descender="-12.408"></path>
					<path d="M13.11-61.69L10.03-1.23L1.76-1.67L4.75-62.13L13.11-61.69Z"
						transform="translate(124.51999999999998 339.592) skewX(0)" fill="#FF8C00" stroke="#FF8C00"
						stroke-width="0.147" data-glyph-w="14.872" data-glyph-h="88" data-glyph-ascender="75.592"
						data-glyph-descender="-12.408"></path>
					<path
						d="M60.63-5.46L6.42 0.35L1.76-4.14L7.74-59.93L12.41-63.62L57.73-56.94L56.58-48.66L15.49-54.74L10.56-8.45L59.75-13.73L60.63-5.46Z"
						transform="translate(139.392 339.592) skewX(0)" fill="#FF8C00" stroke="#FF8C00" stroke-width="0.147"
						data-glyph-w="62.391999999999996" data-glyph-h="88" data-glyph-ascender="75.592"
						data-glyph-descender="-12.408"></path>
					<path
						d="M49.37-5.72L43.47 0L19.01-25.70L19.45-31.86L45.32-52.27L50.51-45.76L28.16-28.07L49.37-5.72ZM18.48-63.54L10.03 1.14L1.76 0.09L10.21-64.50L18.48-63.54Z"
						transform="translate(201.784 339.592) skewX(0)" fill="#FF8C00" stroke="#FF8C00" stroke-width="0.147"
						data-glyph-w="52.272" data-glyph-h="88" data-glyph-ascender="75.592" data-glyph-descender="-12.408"></path>
					<path
						d="M56.14-4.31L6.25-0.26L1.76-4.75L5.98-59.05L10.21-62.92L54.56-61.51L54.21-53.24L13.90-54.47L12.58-37.22L50.69-37.84L50.86-29.48L11.88-28.86L10.38-8.89L55.44-12.58L56.14-4.31Z"
						transform="translate(254.05599999999998 339.592) skewX(0)" fill="#FF8C00" stroke="#FF8C00"
						stroke-width="0.147" data-glyph-w="57.903999999999996" data-glyph-h="88" data-glyph-ascender="75.592"
						data-glyph-descender="-12.408"></path>
					<path
						d="M67.41-61.42L67.23-53.24L38.28-54.21L36.17 0.44L27.81 0.18L30.10-54.47L1.76-55.44L2.11-63.80L67.41-61.42Z"
						transform="translate(311.96 339.592) skewX(0)" fill="#FF8C00" stroke="#FF8C00" stroke-width="0.147"
						data-glyph-w="69.16799999999999" data-glyph-h="88" data-glyph-ascender="75.592"
						data-glyph-descender="-12.408"></path>
				</g>
			</svg>