<?xml version="1.0" encoding="UTF-8"?><svg id="svg_canvas" data-noselect="" viewBox="0 0 640 305" width="640"
	height="305" preserveAspectRatio="none" version="1.1" xmlns="http://www.w3.org/2000/svg"
	xmlns:xlink="http://www.w3.org/1999/xlink">
	<defs></defs>
	<g id="shape_JZfIU9uh3q"
		transform="translate(1,60) rotate(0,92.867812399435,92.867812399435) scale(1,1)"
		filter="" style="opacity: 1;">
		<g>
			<rect fill="rgba(0,0,0,0)" width="169.3173951800548" height="205.73562479887" x="-10" y="-10"></rect><svg
				version="1.1" id="图层_1" xmlns="http://www.w3.org/2000/svg" xmlns:xlink="http://www.w3.org/1999/xlink" x="0px"
				y="0px" width="149.3173951800548" height="185.73562479887"
				viewBox="67.04608917236328 22.557260513305664 122.3021469116211 152.13140869140625"
				style="enable-background:new 0 0 200 200;" xml:space="preserve" class="style-removed" preserveAspectRatio="none"
				data-parent="shape_JZfIU9uh3q">

				<g>
					<path d="M189,127.2c-1.4-7.7-8.2-14.8-16.1-14.3c-6.1,0.4-11.1,4.9-15,9.5c-5.9,7-12.9,12.3-22.7,13.1
		c-8.1,0.6-16.1-5.4-21.7-11.2c-17.4-18-6.7-43.1,15.7-51.2c10.7-3.9,18.9,0.4,29.6,0.1c8.5-0.2,13.7-7.1,15.8-14.8
		c3.5-13.1-0.7-24.3-12.7-30.7c-6.1-3.3-12.8-4.8-19.8-5.1c-42.4-1.5-76.6,36.7-75,79.8c1.1,29.9,20.5,56.5,46.4,67.7
		c12.1,5.2,26,6,38.6,2.3c12.6-3.8,23.8-12.1,31.1-23C187.4,142.9,190.4,134.9,189,127.2z M90.1,65.8c-0.6,0.8-10.5,15-10.5,34.6
		c0,9,2.1,19.1,8.1,29.6c0.8,1.4,0.3,3.2-1.1,4c-0.5,0.3-1,0.4-1.5,0.4c-1,0-2-0.5-2.6-1.5c-21-36.8,2.5-70.2,2.8-70.6
		c1-1.3,2.8-1.6,4.1-0.6C90.8,62.6,91.1,64.5,90.1,65.8z M99.2,53.5c-0.6,0.8-1.5,1.3-2.5,1.3c-0.6,0-1.1-0.2-1.6-0.5
		c-1.4-0.9-1.7-2.7-0.8-4.1c6.4-9.6,16.8-15.3,19.8-16.8c1.4-0.8,3.1-0.4,4,1c0.8,1.4,0.4,3.2-1,4.1c-0.1,0.1-0.3,0.2-0.4,0.2
		C114.1,40.1,104.8,45.1,99.2,53.5z" fill="#4908B1" stroke-width="0"></path>
				</g>
			</svg>
		</g>
	</g>
	<g id="shape_Jpb3xzUR1b" transform="translate(65,-218) rotate(0,468.23837299071,308.592) scale(1.2,1.2)"
		filter="" style="opacity: 1;">
		<g><svg xmlns="http://www.w3.org/2000/svg" version="1.1" xmlns:xlink="http://www.w3.org/1999/xlink" width="734"
				height="617.184" viewBox="0 0 734 617.184" data-parent="shape_Jpb3xzUR1b">
				<rect fill="rgba(0,0,0,0)" width="382" height="88" x="88" y="264.592"></rect>
				<g data-width="381.128" transform="translate(88.436, 0)">
					<path
						d="M60.63-5.46L6.42 0.35L1.76-4.14L7.74-59.93L12.41-63.62L57.73-56.94L56.58-48.66L15.49-54.74L10.56-8.45L59.75-13.73L60.63-5.46Z"
						transform="translate(0 339.592) skewX(0)" fill="rgb(73, 8, 177)" stroke="rgb(73, 8, 177)"
						stroke-width="10.147" stroke-miterlimit="3" data-glyph-w="62.391999999999996" data-glyph-h="88"
						data-glyph-ascender="75.592" data-glyph-descender="-12.408"></path>
					<path
						d="M12.58-53.33L10.03-0.88L1.76-1.32L4.49-57.64L8.45-61.60L51.92-62.92L56.14-59.31L59.84-29.57L55.26-24.99L48.31-25.70L60.37-4.40L53.24-0.35L38.37-26.75L19.71-28.69L20.59-36.96L50.95-33.79L48.40-54.56L12.58-53.33Z"
						transform="translate(62.391999999999996 339.592) skewX(0)" fill="rgb(73, 8, 177)" stroke="rgb(73, 8, 177)"
						stroke-width="10.147" stroke-miterlimit="3" data-glyph-w="62.12799999999999" data-glyph-h="88"
						data-glyph-ascender="75.592" data-glyph-descender="-12.408"></path>
					<path d="M13.11-61.69L10.03-1.23L1.76-1.67L4.75-62.13L13.11-61.69Z"
						transform="translate(124.51999999999998 339.592) skewX(0)" fill="rgb(73, 8, 177)" stroke="rgb(73, 8, 177)"
						stroke-width="10.147" stroke-miterlimit="3" data-glyph-w="14.872" data-glyph-h="88"
						data-glyph-ascender="75.592" data-glyph-descender="-12.408"></path>
					<path
						d="M60.63-5.46L6.42 0.35L1.76-4.14L7.74-59.93L12.41-63.62L57.73-56.94L56.58-48.66L15.49-54.74L10.56-8.45L59.75-13.73L60.63-5.46Z"
						transform="translate(139.392 339.592) skewX(0)" fill="rgb(73, 8, 177)" stroke="rgb(73, 8, 177)"
						stroke-width="10.147" stroke-miterlimit="3" data-glyph-w="62.391999999999996" data-glyph-h="88"
						data-glyph-ascender="75.592" data-glyph-descender="-12.408"></path>
					<path
						d="M49.37-5.72L43.47 0L19.01-25.70L19.45-31.86L45.32-52.27L50.51-45.76L28.16-28.07L49.37-5.72ZM18.48-63.54L10.03 1.14L1.76 0.09L10.21-64.50L18.48-63.54Z"
						transform="translate(201.784 339.592) skewX(0)" fill="rgb(73, 8, 177)" stroke="rgb(73, 8, 177)"
						stroke-width="10.147" stroke-miterlimit="3" data-glyph-w="52.272" data-glyph-h="88"
						data-glyph-ascender="75.592" data-glyph-descender="-12.408"></path>
					<path
						d="M56.14-4.31L6.25-0.26L1.76-4.75L5.98-59.05L10.21-62.92L54.56-61.51L54.21-53.24L13.90-54.47L12.58-37.22L50.69-37.84L50.86-29.48L11.88-28.86L10.38-8.89L55.44-12.58L56.14-4.31Z"
						transform="translate(254.05599999999998 339.592) skewX(0)" fill="rgb(73, 8, 177)" stroke="rgb(73, 8, 177)"
						stroke-width="10.147" stroke-miterlimit="3" data-glyph-w="57.903999999999996" data-glyph-h="88"
						data-glyph-ascender="75.592" data-glyph-descender="-12.408"></path>
					<path
						d="M67.41-61.42L67.23-53.24L38.28-54.21L36.17 0.44L27.81 0.18L30.10-54.47L1.76-55.44L2.11-63.80L67.41-61.42Z"
						transform="translate(311.96 339.592) skewX(0)" fill="rgb(73, 8, 177)" stroke="rgb(73, 8, 177)"
						stroke-width="10.147" stroke-miterlimit="3" data-glyph-w="69.16799999999999" data-glyph-h="88"
						data-glyph-ascender="75.592" data-glyph-descender="-12.408"></path>
				</g>
				<g data-width="381.128" transform="translate(88.436, 0)">
					<path
						d="M60.63-5.46L6.42 0.35L1.76-4.14L7.74-59.93L12.41-63.62L57.73-56.94L56.58-48.66L15.49-54.74L10.56-8.45L59.75-13.73L60.63-5.46Z"
						transform="translate(0 339.592) skewX(0)" fill="#FF8C00" stroke="#FF8C00" stroke-width="0.147"
						data-glyph-w="62.391999999999996" data-glyph-h="88" data-glyph-ascender="75.592"
						data-glyph-descender="-12.408"></path>
					<path
						d="M12.58-53.33L10.03-0.88L1.76-1.32L4.49-57.64L8.45-61.60L51.92-62.92L56.14-59.31L59.84-29.57L55.26-24.99L48.31-25.70L60.37-4.40L53.24-0.35L38.37-26.75L19.71-28.69L20.59-36.96L50.95-33.79L48.40-54.56L12.58-53.33Z"
						transform="translate(62.391999999999996 339.592) skewX(0)" fill="#FF8C00" stroke="#FF8C00"
						stroke-width="0.147" data-glyph-w="62.12799999999999" data-glyph-h="88" data-glyph-ascender="75.592"
						data-glyph-descender="-12.408"></path>
					<path d="M13.11-61.69L10.03-1.23L1.76-1.67L4.75-62.13L13.11-61.69Z"
						transform="translate(124.51999999999998 339.592) skewX(0)" fill="#FF8C00" stroke="#FF8C00"
						stroke-width="0.147" data-glyph-w="14.872" data-glyph-h="88" data-glyph-ascender="75.592"
						data-glyph-descender="-12.408"></path>
					<path
						d="M60.63-5.46L6.42 0.35L1.76-4.14L7.74-59.93L12.41-63.62L57.73-56.94L56.58-48.66L15.49-54.74L10.56-8.45L59.75-13.73L60.63-5.46Z"
						transform="translate(139.392 339.592) skewX(0)" fill="#FF8C00" stroke="#FF8C00" stroke-width="0.147"
						data-glyph-w="62.391999999999996" data-glyph-h="88" data-glyph-ascender="75.592"
						data-glyph-descender="-12.408"></path>
					<path
						d="M49.37-5.72L43.47 0L19.01-25.70L19.45-31.86L45.32-52.27L50.51-45.76L28.16-28.07L49.37-5.72ZM18.48-63.54L10.03 1.14L1.76 0.09L10.21-64.50L18.48-63.54Z"
						transform="translate(201.784 339.592) skewX(0)" fill="#FF8C00" stroke="#FF8C00" stroke-width="0.147"
						data-glyph-w="52.272" data-glyph-h="88" data-glyph-ascender="75.592" data-glyph-descender="-12.408"></path>
					<path
						d="M56.14-4.31L6.25-0.26L1.76-4.75L5.98-59.05L10.21-62.92L54.56-61.51L54.21-53.24L13.90-54.47L12.58-37.22L50.69-37.84L50.86-29.48L11.88-28.86L10.38-8.89L55.44-12.58L56.14-4.31Z"
						transform="translate(254.05599999999998 339.592) skewX(0)" fill="#FF8C00" stroke="#FF8C00"
						stroke-width="0.147" data-glyph-w="57.903999999999996" data-glyph-h="88" data-glyph-ascender="75.592"
						data-glyph-descender="-12.408"></path>
					<path
						d="M67.41-61.42L67.23-53.24L38.28-54.21L36.17 0.44L27.81 0.18L30.10-54.47L1.76-55.44L2.11-63.80L67.41-61.42Z"
						transform="translate(311.96 339.592) skewX(0)" fill="#FF8C00" stroke="#FF8C00" stroke-width="0.147"
						data-glyph-w="69.16799999999999" data-glyph-h="88" data-glyph-ascender="75.592"
						data-glyph-descender="-12.408"></path>
				</g>
			</svg></g>
	</g>
</svg>